<svg width="512" height="512" viewBox="0 0 512 512" xmlns="http://www.w3.org/2000/svg">
                <!-- Option 3: Clean modern cow head (no udder) -->
                
                <!-- Main head -->
                <ellipse cx="256" cy="256" rx="130" ry="110" fill="#f8f8f8" stroke="#222" stroke-width="6"/>
                
                <!-- Broad muzzle -->
                <ellipse cx="256" cy="320" rx="70" ry="40" fill="#e8e8e8" stroke="#222" stroke-width="4"/>
                
                <!-- Nostrils -->
                <ellipse cx="235" cy="320" rx="10" ry="7" fill="#222"/>
                <ellipse cx="277" cy="320" rx="10" ry="7" fill="#222"/>
                
                <!-- Mouth line -->
                <path d="M 220 340 Q 256 350 292 340" stroke="#222" stroke-width="3" fill="none" stroke-linecap="round"/>
                
                <!-- Strategic black spots -->
                <ellipse cx="190" cy="200" rx="35" ry="30" fill="#222"/>
                <ellipse cx="340" cy="220" rx="30" ry="25" fill="#222"/>
                <ellipse cx="180" cy="300" rx="20" ry="15" fill="#222"/>
                <ellipse cx="320" cy="280" rx="25" ry="20" fill="#222"/>
                <ellipse cx="260" cy="370" rx="15" ry="12" fill="#222"/>
                
                <!-- Ears -->
                <ellipse cx="180" cy="180" rx="22" ry="35" fill="#f8f8f8" stroke="#222" stroke-width="4"/>
                <ellipse cx="332" cy="180" rx="22" ry="35" fill="#f8f8f8" stroke="#222" stroke-width="4"/>
                <ellipse cx="180" cy="180" rx="12" ry="18" fill="#ffb6c1"/>
                <ellipse cx="332" cy="180" rx="12" ry="18" fill="#ffb6c1"/>
                
                <!-- Eyes -->
                <circle cx="215" cy="230" r="18" fill="#222"/>
                <circle cx="297" cy="230" r="18" fill="#222"/>
                <circle cx="222" cy="223" r="6" fill="white"/>
                <circle cx="304" cy="223" r="6" fill="white"/>
                
                <!-- Small horns -->
                <ellipse cx="200" cy="150" rx="7" ry="18" fill="#d4af37" stroke="#222" stroke-width="2"/>
                <ellipse cx="312" cy="150" rx="7" ry="18" fill="#d4af37" stroke="#222" stroke-width="2"/>
            </svg>