<svg width="200" height="200" viewBox="0 0 200 200" xmlns="http://www.w3.org/2000/svg">
  <!-- CashCow Logo - Cute cow with financial elements -->
  
  <!-- Main cow head -->
  <ellipse cx="100" cy="100" rx="65" ry="55" fill="#f8f8f8" stroke="#222" stroke-width="3"/>
  
  <!-- Broad muzzle -->
  <ellipse cx="100" cy="130" rx="35" ry="20" fill="#e8e8e8" stroke="#222" stroke-width="2"/>
  
  <!-- Nostrils -->
  <ellipse cx="90" cy="130" rx="5" ry="3.5" fill="#222"/>
  <ellipse cx="110" cy="130" rx="5" ry="3.5" fill="#222"/>
  
  <!-- Mouth line -->
  <path d="M 80 140 Q 100 145 120 140" stroke="#222" stroke-width="2" fill="none" stroke-linecap="round"/>
  
  <!-- Black spots -->
  <ellipse cx="75" cy="80" rx="18" ry="15" fill="#222"/>
  <ellipse cx="135" cy="85" rx="15" ry="12" fill="#222"/>
  <ellipse cx="70" cy="120" rx="10" ry="8" fill="#222"/>
  <ellipse cx="125" cy="115" rx="12" ry="10" fill="#222"/>
  
  <!-- Ears -->
  <ellipse cx="70" cy="70" rx="11" ry="17" fill="#f8f8f8" stroke="#222" stroke-width="2"/>
  <ellipse cx="130" cy="70" rx="11" ry="17" fill="#f8f8f8" stroke="#222" stroke-width="2"/>
  <ellipse cx="70" cy="70" rx="6" ry="9" fill="#ffb6c1"/>
  <ellipse cx="130" cy="70" rx="6" ry="9" fill="#ffb6c1"/>
  
  <!-- Eyes -->
  <circle cx="85" cy="90" r="9" fill="#222"/>
  <circle cx="115" cy="90" r="9" fill="#222"/>
  <circle cx="88" cy="87" r="3" fill="white"/>
  <circle cx="118" cy="87" r="3" fill="white"/>
  
  <!-- Small horns -->
  <ellipse cx="80" cy="55" rx="3.5" ry="9" fill="#d4af37" stroke="#222" stroke-width="1"/>
  <ellipse cx="120" cy="55" rx="3.5" ry="9" fill="#d4af37" stroke="#222" stroke-width="1"/>
  
  <!-- Dollar sign overlay for financial theme -->
  <text x="100" y="175" text-anchor="middle" font-family="Arial, sans-serif" font-size="24" font-weight="bold" fill="#2e8555">$</text>
  
  <!-- Small cash/coin elements around the cow -->
  <circle cx="40" cy="60" r="8" fill="#ffd700" stroke="#222" stroke-width="1"/>
  <text x="40" y="65" text-anchor="middle" font-family="Arial, sans-serif" font-size="8" font-weight="bold" fill="#222">$</text>
  
  <circle cx="160" cy="50" r="6" fill="#ffd700" stroke="#222" stroke-width="1"/>
  <text x="160" y="54" text-anchor="middle" font-family="Arial, sans-serif" font-size="6" font-weight="bold" fill="#222">¢</text>
</svg>