<svg xmlns="http://www.w3.org/2000/svg" width="1041.277" height="554.141" viewBox="0 0 1041.277 554.141">
  <title>Powered by Innovation - CashCow with Tech Elements</title>
  
  <!-- Background tech pattern -->
  <defs>
    <pattern id="techGrid" x="0" y="0" width="50" height="50" patternUnits="userSpaceOnUse">
      <path d="M 50 0 L 0 0 0 50" fill="none" stroke="#e0e0e0" stroke-width="1"/>
    </pattern>
  </defs>
  
  <!-- Background -->
  <rect width="1041.277" height="554.141" fill="#f8f8f8"/>
  <rect width="1041.277" height="554.141" fill="url(#techGrid)" opacity="0.3"/>
  
  <!-- Main cow with tech/financial elements -->
  <g transform="translate(520, 250)">
    <!-- Cow head (larger, centered) -->
    <ellipse cx="0" cy="0" rx="80" ry="70" fill="#f8f8f8" stroke="#222" stroke-width="4"/>
    
    <!-- Muzzle -->
    <ellipse cx="0" cy="35" rx="45" ry="25" fill="#e8e8e8" stroke="#222" stroke-width="3"/>
    
    <!-- Nostrils -->
    <ellipse cx="-15" cy="35" rx="6" ry="4" fill="#222"/>
    <ellipse cx="15" cy="35" rx="6" ry="4" fill="#222"/>
    
    <!-- Mouth -->
    <path d="M -25 50 Q 0 58 25 50" stroke="#222" stroke-width="3" fill="none" stroke-linecap="round"/>
    
    <!-- Eyes with tech reflection -->
    <circle cx="-25" cy="-10" r="12" fill="#222"/>
    <circle cx="25" cy="-10" r="12" fill="#222"/>
    <circle cx="-22" cy="-13" r="4" fill="white"/>
    <circle cx="28" cy="-13" r="4" fill="white"/>
    <rect x="-24" y="-15" width="2" height="6" fill="#00ff00" opacity="0.7"/>
    <rect x="26" y="-15" width="2" height="6" fill="#00ff00" opacity="0.7"/>
    
    <!-- Ears -->
    <ellipse cx="-50" cy="-30" rx="15" ry="25" fill="#f8f8f8" stroke="#222" stroke-width="3"/>
    <ellipse cx="50" cy="-30" rx="15" ry="25" fill="#f8f8f8" stroke="#222" stroke-width="3"/>
    <ellipse cx="-50" cy="-30" rx="8" ry="15" fill="#ffb6c1"/>
    <ellipse cx="50" cy="-30" rx="8" ry="15" fill="#ffb6c1"/>
    
    <!-- Small antenna horns -->
    <ellipse cx="-35" cy="-55" rx="4" ry="12" fill="#d4af37" stroke="#222" stroke-width="2"/>
    <ellipse cx="35" cy="-55" rx="4" ry="12" fill="#d4af37" stroke="#222" stroke-width="2"/>
    <circle cx="-35" cy="-65" r="3" fill="#ff0000"/>
    <circle cx="35" cy="-65" r="3" fill="#ff0000"/>
    
    <!-- Black spots -->
    <ellipse cx="-40" cy="-20" rx="20" ry="15" fill="#222"/>
    <ellipse cx="35" cy="10" rx="18" ry="12" fill="#222"/>
    <ellipse cx="-10" cy="20" rx="12" ry="10" fill="#222"/>
  </g>
  
  <!-- Financial data visualization around the cow -->
  <!-- Charts and graphs -->
  <g transform="translate(150, 100)">
    <!-- Bar chart -->
    <rect x="0" y="60" width="15" height="40" fill="#2e8555"/>
    <rect x="20" y="45" width="15" height="55" fill="#2e8555"/>
    <rect x="40" y="30" width="15" height="70" fill="#2e8555"/>
    <rect x="60" y="20" width="15" height="80" fill="#2e8555"/>
    <rect x="80" y="10" width="15" height="90" fill="#2e8555"/>
    
    <!-- Axis lines -->
    <line x1="0" y1="100" x2="100" y2="100" stroke="#666" stroke-width="2"/>
    <line x1="0" y1="0" x2="0" y2="100" stroke="#666" stroke-width="2"/>
    
    <!-- Title -->
    <text x="50" y="-10" text-anchor="middle" font-family="Arial" font-size="12" fill="#222">Revenue Growth</text>
  </g>
  
  <!-- Pie chart -->
  <g transform="translate(800, 150)">
    <circle cx="50" cy="50" r="40" fill="#2e8555"/>
    <path d="M 50,50 L 50,10 A 40,40 0 0,1 78.28,35 Z" fill="#3ecc5f"/>
    <path d="M 50,50 L 78.28,35 A 40,40 0 0,1 85,65 Z" fill="#ffd700"/>
    <text x="50" y="110" text-anchor="middle" font-family="Arial" font-size="12" fill="#222">Cost Analysis</text>
  </g>
  
  <!-- Financial metrics floating around -->
  <g font-family="Arial" font-size="14" font-weight="bold">
    <g transform="translate(100, 300)">
      <rect x="0" y="0" width="120" height="40" fill="white" stroke="#ccc" stroke-width="1" rx="5"/>
      <text x="10" y="15" fill="#222">NPV: $2.4M</text>
      <text x="10" y="30" fill="#2e8555">↗ +15.3%</text>
    </g>
    
    <g transform="translate(750, 300)">
      <rect x="0" y="0" width="120" height="40" fill="white" stroke="#ccc" stroke-width="1" rx="5"/>
      <text x="10" y="15" fill="#222">IRR: 28.5%</text>
      <text x="10" y="30" fill="#2e8555">↗ +4.2%</text>
    </g>
    
    <g transform="translate(300, 400)">
      <rect x="0" y="0" width="140" height="40" fill="white" stroke="#ccc" stroke-width="1" rx="5"/>
      <text x="10" y="15" fill="#222">Cash Flow: $850K</text>
      <text x="10" y="30" fill="#2e8555">↗ Monthly</text>
    </g>
  </g>
  
  <!-- Tech elements -->
  <!-- Circuit lines -->
  <g stroke="#3ecc5f" stroke-width="2" fill="none" opacity="0.6">
    <path d="M 100,50 L 150,50 L 150,80 L 200,80"/>
    <path d="M 850,50 L 900,50 L 900,80 L 950,80"/>
    <circle cx="150" cy="50" r="3" fill="#3ecc5f"/>
    <circle cx="150" cy="80" r="3" fill="#3ecc5f"/>
    <circle cx="900" cy="50" r="3" fill="#3ecc5f"/>
    <circle cx="900" cy="80" r="3" fill="#3ecc5f"/>
  </g>
  
  <!-- Binary code decoration -->
  <g font-family="Courier" font-size="10" fill="#ccc" opacity="0.4">
    <text x="50" y="500">101101100110101011010</text>
    <text x="700" y="500">011010110101101100101</text>
  </g>
  
  <!-- Dollar signs with tech glow -->
  <g font-family="Arial" font-size="36" font-weight="bold">
    <defs>
      <filter id="glow">
        <feGaussianBlur stdDeviation="3" result="coloredBlur"/>
        <feMerge> 
          <feMergeNode in="coloredBlur"/>
          <feMergeNode in="SourceGraphic"/>
        </feMerge>
      </filter>
    </defs>
    <text x="200" y="200" fill="#2e8555" filter="url(#glow)">$</text>
    <text x="800" y="400" fill="#2e8555" filter="url(#glow)">$</text>
  </g>
</svg>