<svg xmlns="http://www.w3.org/2000/svg" width="1129" height="663" viewBox="0 0 1129 663">
  <title>Focus on What Matters - CashCow Dashboard</title>
  
  <!-- Background -->
  <circle cx="321" cy="321" r="321" fill="#f2f2f2" />
  <ellipse cx="559" cy="635.49998" rx="514" ry="27.50002" fill="#3f3d56" />
  <ellipse cx="558" cy="627" rx="460" ry="22" opacity="0.2" />
  
  <!-- Computer/Dashboard Frame -->
  <rect x="131" y="152.5" width="840" height="50" fill="#3f3d56" />
  <path d="M166.5,727.3299A21.67009,21.67009,0,0,0,188.1701,749H984.8299A21.67009,21.67009,0,0,0,1006.5,727.3299V296h-840Z" transform="translate(-35.5 -118.5)" fill="#3f3d56" />
  <path d="M984.8299,236H188.1701A21.67009,21.67009,0,0,0,166.5,257.6701V296h840V257.6701A21.67009,21.67009,0,0,0,984.8299,236Z" transform="translate(-35.5 -118.5)" fill="#3f3d56" />
  <path d="M984.8299,236H188.1701A21.67009,21.67009,0,0,0,166.5,257.6701V296h840V257.6701A21.67009,21.67009,0,0,0,984.8299,236Z" transform="translate(-35.5 -118.5)" opacity="0.2" />
  
  <!-- Window controls -->
  <circle cx="181" cy="147.5" r="13" fill="#ff5f56" />
  <circle cx="217" cy="147.5" r="13" fill="#ffbd2e" />
  <circle cx="253" cy="147.5" r="13" fill="#27ca3f" />
  
  <!-- Dashboard Content Area -->
  <rect x="168" y="213.5" width="337" height="386" fill="#ffffff" stroke="#e0e0e0" stroke-width="2" rx="8" />
  
  <!-- CashCow in the sidebar -->
  <g transform="translate(250, 350)">
    <!-- Cute cow mascot in sidebar -->
    <ellipse cx="0" cy="0" rx="45" ry="38" fill="#f8f8f8" stroke="#222" stroke-width="2"/>
    
    <!-- Muzzle -->
    <ellipse cx="0" cy="15" rx="22" ry="12" fill="#e8e8e8" stroke="#222" stroke-width="1"/>
    
    <!-- Nostrils -->
    <ellipse cx="-8" cy="15" rx="3" ry="2" fill="#222"/>
    <ellipse cx="8" cy="15" rx="3" ry="2" fill="#222"/>
    
    <!-- Eyes -->
    <circle cx="-15" cy="-5" r="6" fill="#222"/>
    <circle cx="15" cy="-5" r="6" fill="#222"/>
    <circle cx="-13" cy="-7" r="2" fill="white"/>
    <circle cx="17" cy="-7" r="2" fill="white"/>
    
    <!-- Ears -->
    <ellipse cx="-25" cy="-20" rx="8" ry="12" fill="#f8f8f8" stroke="#222" stroke-width="1"/>
    <ellipse cx="25" cy="-20" rx="8" ry="12" fill="#f8f8f8" stroke="#222" stroke-width="1"/>
    <ellipse cx="-25" cy="-20" rx="4" ry="6" fill="#ffb6c1"/>
    <ellipse cx="25" cy="-20" rx="4" ry="6" fill="#ffb6c1"/>
    
    <!-- Small horns -->
    <ellipse cx="-18" cy="-30" rx="2" ry="6" fill="#d4af37" stroke="#222" stroke-width="1"/>
    <ellipse cx="18" cy="-30" rx="2" ry="6" fill="#d4af37" stroke="#222" stroke-width="1"/>
    
    <!-- Black spots -->
    <ellipse cx="-20" cy="-10" rx="12" ry="8" fill="#222"/>
    <ellipse cx="18" cy="5" rx="10" ry="6" fill="#222"/>
  </g>
  
  <!-- Dashboard Header -->
  <rect x="603" y="272.5" width="284" height="22" rx="5.47638" fill="#2e8555" />
  <text x="620" y="286" font-family="Arial" font-size="14" font-weight="bold" fill="white">CashCow Financial Dashboard</text>
  
  <!-- Dashboard Menu Items -->
  <rect x="537" y="352.5" width="416" height="15" rx="5.47638" fill="#e8e8e8" />
  <text x="545" y="363" font-family="Arial" font-size="12" fill="#222">📊 Cash Flow Analysis</text>
  
  <rect x="537" y="396.5" width="416" height="15" rx="5.47638" fill="#e8e8e8" />
  <text x="545" y="407" font-family="Arial" font-size="12" fill="#222">📈 Revenue Forecasting</text>
  
  <rect x="537" y="440.5" width="416" height="15" rx="5.47638" fill="#e8e8e8" />
  <text x="545" y="451" font-family="Arial" font-size="12" fill="#222">💰 Investment Tracking</text>
  
  <rect x="537" y="484.5" width="416" height="15" rx="5.47638" fill="#e8e8e8" />
  <text x="545" y="495" font-family="Arial" font-size="12" fill="#222">🚀 Rocket Engine Metrics</text>
  
  <!-- Action Button -->
  <rect x="865" y="552.5" width="88" height="26" rx="7.02756" fill="#3ecc5f" />
  <text x="875" y="568" font-family="Arial" font-size="12" font-weight="bold" fill="white">Generate Report</text>
  
  <!-- Financial metrics display -->
  <g transform="translate(600, 350)">
    <!-- Revenue box -->
    <rect x="0" y="0" width="120" height="60" fill="white" stroke="#ddd" stroke-width="1" rx="5"/>
    <text x="10" y="15" font-family="Arial" font-size="10" fill="#666">Total Revenue</text>
    <text x="10" y="35" font-family="Arial" font-size="18" font-weight="bold" fill="#2e8555">$2.4M</text>
    <text x="10" y="50" font-family="Arial" font-size="10" fill="#2e8555">↗ +15.3%</text>
    
    <!-- Expenses box -->
    <rect x="140" y="0" width="120" height="60" fill="white" stroke="#ddd" stroke-width="1" rx="5"/>
    <text x="150" y="15" font-family="Arial" font-size="10" fill="#666">Total Expenses</text>
    <text x="150" y="35" font-family="Arial" font-size="18" font-weight="bold" fill="#e74c3c">$1.2M</text>
    <text x="150" y="50" font-family="Arial" font-size="10" fill="#e74c3c">↗ +8.1%</text>
    
    <!-- Net profit box -->
    <rect x="280" y="0" width="120" height="60" fill="white" stroke="#ddd" stroke-width="1" rx="5"/>
    <text x="290" y="15" font-family="Arial" font-size="10" fill="#666">Net Profit</text>
    <text x="290" y="35" font-family="Arial" font-size="18" font-weight="bold" fill="#27ae60">$1.2M</text>
    <text x="290" y="50" font-family="Arial" font-size="10" fill="#27ae60">↗ +23.7%</text>
  </g>
  
  <!-- Mini chart visualization -->
  <g transform="translate(650, 450)">
    <!-- Simple line chart -->
    <rect x="0" y="0" width="200" height="80" fill="white" stroke="#ddd" stroke-width="1" rx="3"/>
    <polyline points="10,60 30,45 50,30 70,35 90,20 110,25 130,15 150,10 170,18 190,12" 
              fill="none" stroke="#2e8555" stroke-width="2"/>
    <text x="10" y="75" font-family="Arial" font-size="8" fill="#666">Cash Flow Trend (12M)</text>
  </g>
  
  <!-- Decorative cow pattern in background -->
  <g opacity="0.1">
    <ellipse cx="800" cy="400" rx="20" ry="16" fill="#222"/>
    <ellipse cx="950" cy="350" rx="18" ry="14" fill="#222"/>
    <ellipse cx="1050" cy="450" rx="15" ry="12" fill="#222"/>
  </g>
</svg>